# Blender v2.76 (sub 0) OBJ File: ''
# www.blender.org
mtllib cube2.mtl
o Cube
v 1.000000 -1.000000 -1.000000
v 1.000000 -1.000000 1.000000
v -1.000000 -1.000000 1.000000
v -1.000000 -1.000000 -1.000000
v 0.359943 1.000000 -0.200679
v 0.359942 1.000000 0.282843
v -0.226769 1.000000 0.411159
v -0.226769 1.000000 -0.311539
vn 0.000000 -1.000000 0.000000
vn 0.000000 1.000000 0.000000
vn 0.952400 0.304800 0.000000
vn 0.047100 0.308600 0.950000
vn -0.932700 0.360600 -0.000000
vn 0.040200 0.347200 -0.936900
usemtl Material
s off
f 1//1 2//1 3//1 4//1
f 5//2 8//2 7//2 6//2
f 1//3 5//3 6//3 2//3
f 2//4 6//4 7//4 3//4
f 3//5 7//5 8//5 4//5
f 5//6 1//6 4//6 8//6
